<svg width="24" height="24" viewBox="0 0 24 24" fill="none" xmlns="http://www.w3.org/2000/svg">
<path d="M0 0V24H24V0H0ZM13.5203 5.00242H14.3943V8.62672C14.3943 8.67475 14.3982 8.7233 14.4066 8.77038C14.4331 8.91974 14.5435 8.99004 14.6873 8.94017C14.8627 8.8795 14.9965 8.75811 15.1099 8.61508C15.126 8.59465 15.1231 8.55652 15.1231 8.52656V5.00242H16.0034L16.0032 9.75491H15.1226L15.1237 9.24435C15.0263 9.34025 14.9432 9.42983 14.8519 9.51029C14.69 9.65291 14.5066 9.75923 14.2921 9.8012C13.9628 9.86556 13.6823 9.7615 13.5773 9.42045C13.5424 9.30686 13.5212 9.18442 13.5203 9.06582V5.00242ZM11.5201 4.88346C12.2165 4.88346 12.7811 5.448 12.7811 6.14441V8.61213C12.7811 9.30854 12.2165 9.87309 11.5201 9.87309C10.8237 9.87309 10.2592 9.30854 10.2592 8.61213V6.14441C10.2591 5.448 10.8236 4.88346 11.5201 4.88346ZM8.12811 3.32143C8.12811 3.32143 8.52861 5.02249 8.71978 5.82828H8.72009C8.91126 5.02249 9.31176 3.32143 9.31176 3.32143H10.3139C10.3139 3.32143 9.54395 5.87489 9.19964 7.01366C9.18721 7.05479 9.18157 7.09956 9.18157 7.14269L9.182 9.75391H8.25792L8.25829 7.14269C8.25829 7.09956 8.25261 7.05485 8.24023 7.01366C7.89592 5.87489 7.12599 3.32143 7.12599 3.32143H8.12811ZM19.147 18.4775C19.147 19.6455 18.2139 20.5998 17.0463 20.6245C13.6828 20.6967 10.3176 20.6967 6.95352 20.6245C5.78652 20.5998 4.85334 19.6455 4.85334 18.4775V13.2239C4.85334 12.0563 5.78652 11.1021 6.95352 11.0773C10.3176 11.0052 13.6828 11.0052 17.0463 11.0773C18.2139 11.1021 19.147 12.0563 19.147 13.2239V18.4775Z" fill="white"/>
</svg>
