<svg width="22" height="16" viewBox="0 0 22 16" fill="none" xmlns="http://www.w3.org/2000/svg">
<path d="M21.8657 7.67591L14.9907 0.800914C14.8117 0.621863 14.5216 0.621863 14.3426 0.800914C14.1636 0.979965 14.1636 1.27 14.3426 1.44901L20.4353 7.54164H0.458348C0.205004 7.54164 0 7.74664 0 7.99998C0 8.25333 0.205004 8.45833 0.458348 8.45833H20.4353L14.3426 14.5509C14.1636 14.73 14.1636 15.02 14.3426 15.199C14.4321 15.2885 14.5494 15.3333 14.6667 15.3333C14.784 15.3333 14.9012 15.2885 14.9908 15.199L21.8658 8.32401C22.0448 8.145 22.0448 7.85496 21.8657 7.67591Z" fill="#E85127"/>
</svg>
