<svg width="24" height="24" viewBox="0 0 24 24" fill="none" xmlns="http://www.w3.org/2000/svg">
<path d="M0 0V24H24V0H0ZM19.0255 8.63373C19.031 8.77465 19.034 8.9161 19.034 9.05855C19.034 14.764 14.4086 19.3899 8.70261 19.3899C6.67151 19.3899 4.77687 18.8037 3.17961 17.7907C3.17924 17.7906 3.17888 17.7905 3.17856 17.7905L3.17961 17.7907C6.30214 18.2563 8.5017 16.2693 8.5017 16.2693C5.71943 16.0529 5.16968 13.7375 5.16968 13.7375C6.15274 13.9039 6.76894 13.6705 6.76894 13.6705C3.63736 12.9378 3.90372 10.0721 3.90372 10.0721C4.62889 10.5054 5.46954 10.5389 5.46954 10.5389C2.70428 8.10652 4.43699 5.74107 4.43699 5.74107C7.33617 9.25198 11.5978 9.49086 11.8776 9.5024C11.8162 9.2385 11.7837 8.96366 11.7837 8.68128C11.7837 6.6802 13.4064 5.05793 15.409 5.05793C16.4531 5.05793 17.3936 5.49872 18.0553 6.20492C18.2388 6.15347 18.4167 6.09797 18.5866 6.04151C19.6132 5.69915 20.3463 5.30782 20.3463 5.30782C20.1694 6.36786 18.8625 7.25744 18.769 7.3199C18.7655 7.32237 18.7635 7.32337 18.7635 7.32337C18.7655 7.32337 18.768 7.3229 18.77 7.3229C19.7846 7.22142 20.8211 6.79064 20.8211 6.79064C20.5083 7.44824 19.2319 8.47126 19.0255 8.63373Z" fill="white"/>
</svg>
