<svg width="33" height="17" viewBox="0 0 33 17" fill="none" xmlns="http://www.w3.org/2000/svg">
<path d="M31.7109 7.21093H4.4113L8.93359 2.71056C9.43819 2.20834 9.44013 1.39217 8.93791 0.887565C8.43569 0.382898 7.61945 0.381029 7.11485 0.883183L0.379244 7.5863C0.378792 7.58669 0.37847 7.58714 0.378083 7.58753C-0.125231 8.08975 -0.126842 8.90856 0.377955 9.41245C0.378406 9.41284 0.378728 9.41329 0.379115 9.41368L7.11472 16.1168C7.61926 16.6189 8.4355 16.6171 8.93778 16.1124C9.44 15.6078 9.43806 14.7916 8.93346 14.2894L4.4113 9.78905H31.7109C32.4229 9.78905 33 9.21194 33 8.49999C33 7.78804 32.4229 7.21093 31.7109 7.21093Z" fill="black"/>
</svg>
