<svg width="33" height="17" viewBox="0 0 33 17" fill="none" xmlns="http://www.w3.org/2000/svg">
<path d="M1.28905 9.78907L28.5887 9.78907L24.0664 14.2894C23.5618 14.7917 23.5599 15.6078 24.0621 16.1124C24.5643 16.6171 25.3805 16.619 25.8851 16.1168L32.6207 9.4137C32.6212 9.41331 32.6215 9.41286 32.6219 9.41247C33.1252 8.91025 33.1268 8.09144 32.622 7.58755C32.6216 7.58716 32.6212 7.58671 32.6209 7.58632L25.8853 0.883201C25.3807 0.381112 24.5645 0.382852 24.0622 0.887583C23.56 1.39219 23.5619 2.20836 24.0665 2.71057L28.5887 7.21095L1.28905 7.21095C0.5771 7.21095 -1.44979e-05 7.78806 -1.45601e-05 8.50001C-1.46223e-05 9.21196 0.577099 9.78907 1.28905 9.78907Z" fill="white"/>
</svg>
