<?xml version="1.0" encoding="utf-8"?>
<svg id="Layer_1" data-name="Layer 1" viewBox="0 0 464.975 162.371" xmlns="http://www.w3.org/2000/svg" xmlns:bx="https://boxy-svg.com">
  <defs>
    <style>.cls-1{fill:#5bac26;}.cls-2{fill:#1e1e1e;}.cls-3{fill:#e85127;}</style>
    <bx:grid x="0" y="0" width="464.975" height="162.371"/>
  </defs>
  <title>NCAB_logo_2</title>
  <path class="cls-1" d="M134.92,164.2a8.82,8.82,0,0,1-5.35,2.55h79.95V131.09H168Z" transform="translate(-4.62 -5.43)"/>
  <path class="cls-1" d="M117.15,128.41a8.82,8.82,0,0,1-6.29,2.6H49.48v18H125l33.11-33.1a8.9,8.9,0,0,1,6.29-2.61h45.16V95.68H149.59Z" transform="translate(-4.62 -5.43)"/>
  <path class="cls-1" d="M129.44,6.74a9,9,0,0,1,5.49,2.54L168,42.39h41.49V6.74Z" transform="translate(-4.62 -5.43)"/>
  <path class="cls-1" d="M158.07,57.57,125,24.47H49.48V41.34h61.43a8.91,8.91,0,0,1,6.42,2.74l33,33.83h59.22V60.17H164.36A8.91,8.91,0,0,1,158.07,57.57Z" transform="translate(-4.62 -5.43)"/>
  <path class="cls-2" d="M354.63,79.28l-2.2-16H339.8l-2.12,15.52-.07.46H324.52L338,6.15h16.26l13.48,73.13Zm-4.15-27.81-4.36-27.62-4.36,27.62Z" transform="translate(-4.62 -5.43)"/>
  <path class="cls-2" d="M301.78,47.68V61c0,2.64-.4,4.51-1.31,5.66s-2.31,1.75-4.71,1.77-3.84-.61-4.73-1.77-1.32-3-1.3-5.66V24.65c0-2.64.4-4.52,1.3-5.67s2.32-1.75,4.73-1.75,3.83.61,4.71,1.75,1.31,3,1.31,5.67v10.8h13.39V24.36c0-5.19-1.53-9.92-4.74-13.37s-8.1-5.56-14.66-5.56S284.29,7.54,281.08,11s-4.75,8.18-4.75,13.37v37c0,5.14,1.52,9.89,4.75,13.35s8.11,5.56,14.68,5.55h0c6.56,0,11.44-2.11,14.65-5.55a19.27,19.27,0,0,0,4.74-13.35V47.68Z" transform="translate(-4.62 -5.43)"/>
  <path class="cls-2" d="M265.13,125.39h-20V136h6.64v12.08c0,2.64-.41,4.51-1.3,5.66s-2.32,1.74-4.73,1.76-3.82-.61-4.73-1.76-1.3-3-1.3-5.66V111.74c0-2.63.41-4.52,1.3-5.66s2.33-1.77,4.73-1.77,3.83.62,4.73,1.77,1.3,3,1.3,5.66v5.86h13.38v-6.16c0-5.18-1.52-9.9-4.74-13.36s-8.11-5.55-14.68-5.55S234.24,94.63,231,98.08s-4.73,8.18-4.73,13.36v37c0,5.18,1.52,9.91,4.73,13.38s8.11,5.56,14.68,5.55h0c6.56,0,11.44-2.12,14.65-5.55s4.74-8.2,4.74-13.38V136h0Z" transform="translate(-4.62 -5.43)"/>
  <path class="cls-2" d="M253.46,79.17l-15-42.82V79.17H226.81v-.53h0v.53h-.54V6.34h12.34l14.3,39.12V6.34h12.19V79.17Z" transform="translate(-4.62 -5.43)"/>
  <path class="cls-2" d="M407.7,40.92c5.47-2.79,7.81-9.09,7.81-15,0-6.21-1.48-11.09-4.73-14.45S402.59,6.4,395.91,6.4H377.08V79.21h20c7.09,0,12.09-2.3,15.28-6.14s4.49-9.16,4.49-15.15C416.94,49.07,413.49,43.87,407.7,40.92ZM390.46,17.6h4.14c5.18.07,7.45,3.07,7.53,9.62,0,5.73-3.32,8.56-7.72,8.61h-3.95Zm11.15,47.85c-1.29,1.69-3.33,2.56-6.51,2.58h-4.64V47h3.45c3.61,0,5.94.9,7.44,2.58s2.17,4.31,2.17,7.92S402.93,63.74,401.62,65.45Z" transform="translate(-4.62 -5.43)"/>
  <path class="cls-2" d="M304,166.33l-8.74-29.67c-1.48.13-3.55.23-5.44.24h0v29.42H276.4V93.52h17.83c7,0,12.35,1.48,16,5h0c3.64,3.53,5.42,9,5.42,16.7h0c0,11.29-4.3,16.29-8.51,18.38h0l10.5,32.74Zm-14.71-.53v0Zm4.37-40.09c3.29,0,5.37-.61,6.67-2.12h0c1.31-1.5,2-4.14,1.95-8.38h0c0-4.22-.64-6.85-1.95-8.37h0c-1.3-1.5-3.38-2.12-6.67-2.12h-3.84v21Z" transform="translate(-4.62 -5.43)"/>
  <path class="cls-2" d="M346.15,167.34c-6.58,0-11.46-2.11-14.67-5.55h0c-3.22-3.47-4.74-8.2-4.74-13.38h0v-37c0-5.18,1.51-9.9,4.74-13.36h0c3.21-3.45,8.09-5.55,14.67-5.55h0c6.57,0,11.46,2.09,14.67,5.55h0c3.21,3.46,4.75,8.18,4.75,13.36h0v37c0,5.18-1.54,9.91-4.75,13.38h0c-3.21,3.43-8.1,5.55-14.65,5.55h0Zm-4.72-13.56c.9,1.15,2.31,1.74,4.72,1.76h0c2.41,0,3.83-.61,4.72-1.76h0c.9-1.15,1.31-3,1.31-5.66h0V111.74c0-2.63-.4-4.52-1.31-5.66h0c-.89-1.15-2.31-1.77-4.72-1.77h0c-2.41,0-3.83.62-4.72,1.77h0c-.9,1.14-1.31,3-1.31,5.66h0v36.38c0,2.64.42,4.51,1.31,5.66Z" transform="translate(-4.62 -5.43)"/>
  <path class="cls-2" d="M396.71,167.34c-6,0-10.84-1.72-14.22-5.09h0c-3.37-3.34-5.2-8.28-5.19-14.54h0V93.52h13.38v54.7c.09,5.15,1.81,7.24,6,7.32h0c4.22-.08,5.94-2.17,6-7.32h0V93.52h13.38v54.2c0,6.26-1.82,11.19-5.2,14.54h0c-3.37,3.37-8.24,5.09-14.19,5.09h0Z" transform="translate(-4.62 -5.43)"/>
  <path class="cls-2" d="M427.87,166.33v-.53h0v.53h-.52V93.52h18.21c7.66,0,13.37,1.47,17.19,5h0c3.82,3.52,5.6,9,5.6,16.71h0c0,7.73-1.77,13.19-5.6,16.72h0c-3.82,3.52-9.53,5-17.19,5h-4.84v29.42ZM445,125.71c4,0,6.45-.61,7.91-2.14h0c1.46-1.5,2.1-4.12,2.1-8.36h0c0-4.22-.63-6.84-2.1-8.36h0c-1.46-1.51-3.91-2.14-7.91-2.14h-4.24v21Z" transform="translate(-4.62 -5.43)"/>
  <path class="cls-1" d="M107.14,59.14H52.34a27.12,27.12,0,0,1-2.86,54.1h57.7l26.59-26.88Z" transform="translate(-4.62 -5.43)"/>
  <path class="cls-3" d="M59.27,86.11a9.77,9.77,0,1,1-9.79-9.78A9.78,9.78,0,0,1,59.27,86.11Z" transform="translate(-4.62 -5.43)"/>
  <path class="cls-2" d="M158.07,115.91,125,149H49.48v17.74l79.16,0a8.82,8.82,0,0,0,6.28-2.6L168,131.09h41.49V113.31H164.36A8.9,8.9,0,0,0,158.07,115.91Zm10-73.52L134.93,9.27a9,9,0,0,0-6.29-2.58H49.48V24.47H125l33.11,33.1a8.91,8.91,0,0,0,6.29,2.59h45.16V42.39Zm-50.69,1.69a8.91,8.91,0,0,0-6.42-2.74H49.48C24.69,41.41,4.62,61,4.62,85.79A45.19,45.19,0,0,0,49.6,131h61.27a8.82,8.82,0,0,0,6.29-2.6l32.44-32.72h59.93V77.91H150.3Zm-10.15,69.16H49.48A27.46,27.46,0,0,1,22.4,85.79c0-15,12.17-26.65,27.2-26.67h57.54l26.64,27.21Z" transform="translate(-4.62 -5.43)"/>
</svg>